<svg xmlns="http://www.w3.org/2000/svg" width="26.334" height="21.429" viewBox="0 0 26.334 21.429">
  <path id="Path_2" data-name="Path 2" d="M46.434,66.539a10.923,10.923,0,0,1-3.1.854A5.422,5.422,0,0,0,45.708,64.4a10.735,10.735,0,0,1-3.432,1.311,5.4,5.4,0,0,0-9.347,3.694,5.289,5.289,0,0,0,.14,1.233A15.311,15.311,0,0,1,21.93,64.988a5.413,5.413,0,0,0,1.68,7.221,5.277,5.277,0,0,1-2.455-.675V71.6a5.407,5.407,0,0,0,4.336,5.3,5.438,5.438,0,0,1-1.423.19,5.1,5.1,0,0,1-1.016-.1,5.411,5.411,0,0,0,5.05,3.756,10.832,10.832,0,0,1-6.713,2.316,10.951,10.951,0,0,1-1.289-.078,15.1,15.1,0,0,0,8.27,2.444A15.28,15.28,0,0,0,43.755,70.038c0-.234-.006-.469-.017-.7A11,11,0,0,0,46.434,66.539Z" transform="translate(-20.1 -64)" fill="#707070"/>
</svg>
