<svg xmlns="http://www.w3.org/2000/svg" width="16.166" height="16.166" viewBox="0 0 16.166 16.166">
  <g id="Badge" transform="translate(-26.167 -63.667)">
    <path id="Path_43" data-name="Path 43" d="M34.416,64.634l.911-.9a.236.236,0,0,1,.376.059l.589,1.136a.236.236,0,0,0,.316.1l1.144-.573a.236.236,0,0,1,.339.173L38.3,65.9a.236.236,0,0,0,.268.2l1.266-.192a.236.236,0,0,1,.269.269l-.192,1.265a.236.236,0,0,0,.2.268l1.263.209a.236.236,0,0,1,.173.339l-.573,1.144a.236.236,0,0,0,.1.316l1.136.589a.236.236,0,0,1,.059.376l-.9.911a.236.236,0,0,0,0,.332l.9.911a.236.236,0,0,1-.059.376l-1.136.589a.236.236,0,0,0-.1.316l.573,1.144a.236.236,0,0,1-.173.339L40.1,75.8a.236.236,0,0,0-.2.268l.192,1.265a.236.236,0,0,1-.269.269l-1.266-.192a.236.236,0,0,0-.268.2l-.209,1.263a.236.236,0,0,1-.339.173l-1.144-.573a.236.236,0,0,0-.316.1L35.7,79.706a.236.236,0,0,1-.376.059l-.911-.9a.236.236,0,0,0-.332,0l-.911.9a.236.236,0,0,1-.376-.059l-.589-1.137a.236.236,0,0,0-.316-.1l-1.144.573a.236.236,0,0,1-.339-.173L30.2,77.6a.236.236,0,0,0-.268-.2l-1.265.192a.236.236,0,0,1-.269-.269l.192-1.265a.236.236,0,0,0-.2-.268l-1.263-.209a.236.236,0,0,1-.173-.339l.573-1.144a.236.236,0,0,0-.1-.316L26.295,73.2a.236.236,0,0,1-.059-.376l.9-.911a.236.236,0,0,0,0-.332l-.9-.911a.236.236,0,0,1,.059-.376l1.136-.589a.236.236,0,0,0,.1-.316l-.573-1.144a.236.236,0,0,1,.173-.339L28.4,67.7a.236.236,0,0,0,.2-.268L28.4,66.168a.236.236,0,0,1,.269-.269l1.265.192a.236.236,0,0,0,.268-.2l.209-1.263a.236.236,0,0,1,.339-.173l1.144.573a.236.236,0,0,0,.316-.1l.589-1.136a.236.236,0,0,1,.376-.059l.911.9A.236.236,0,0,0,34.416,64.634Z" fill="#3897f0"/>
    <path id="Path_44" data-name="Path 44" d="M83.444,120.226a.7.7,0,0,0-.984.06l-3.12,3.523-1-1a.632.632,0,0,0-.891,0l-.094.094a.632.632,0,0,0,0,.891l1.554,1.555a.63.63,0,0,0,.851.033.679.679,0,0,0,.149-.123L83.5,121.21A.7.7,0,0,0,83.444,120.226Z" transform="translate(-46.176 -51.044)" fill="#fff"/>
  </g>
</svg>
