<svg xmlns="http://www.w3.org/2000/svg" width="26.971" height="26.969" viewBox="0 0 26.971 26.969">
  <g id="Group_28" data-name="Group 28" transform="translate(0.25 0.25)">
    <g id="Group_27" data-name="Group 27">
      <g id="Group_26" data-name="Group 26">
        <path id="Path_30" data-name="Path 30" d="M728.9,1360.426a.691.691,0,0,1-.136-.013l-6.679-1.29a13.073,13.073,0,0,1-5.7,1.3,13.247,13.247,0,1,1,11.839-7.328l1.379,6.463a.716.716,0,0,1-.7.865Zm-12.517-25.038a11.8,11.8,0,1,0,0,23.607,11.679,11.679,0,0,0,5.282-1.259.7.7,0,0,1,.456-.063l5.854,1.13-1.207-5.655a.713.713,0,0,1,.067-.482,11.668,11.668,0,0,0,1.351-5.474A11.817,11.817,0,0,0,716.382,1335.388Z" transform="translate(-703.147 -1333.957)" stroke="#000" stroke-width="0.5"/>
      </g>
    </g>
  </g>
</svg>
