<svg xmlns="http://www.w3.org/2000/svg" width="22.074" height="26.922" viewBox="0 0 22.074 26.922">
  <g id="Group_24" data-name="Group 24" transform="translate(0.25 -9.75)">
    <g id="Group_23" data-name="Group 23">
      <path id="Path_28" data-name="Path 28" d="M1536.431,1359.875a.715.715,0,0,1-.506-.209l-9.566-9.566-9.566,9.566a.715.715,0,0,1-1.221-.506v-24.978a.715.715,0,0,1,.716-.715h20.144a.715.715,0,0,1,.715.715v24.978a.714.714,0,0,1-.442.66A.707.707,0,0,1,1536.431,1359.875Zm-10.072-11.5a.713.713,0,0,1,.506.209l8.851,8.851V1334.9H1517v22.536l8.851-8.851A.713.713,0,0,1,1526.359,1348.372Z" transform="translate(-1515.572 -1323.466)" stroke="#000" stroke-width="0.5"/>
    </g>
  </g>
</svg>
