<svg xmlns="http://www.w3.org/2000/svg" width="49" height="50" viewBox="0 0 49 50">
  <g id="Group_36" data-name="Group 36" transform="translate(-0.401)">
    <ellipse id="Ellipse_17" data-name="Ellipse 17" cx="24.5" cy="25" rx="24.5" ry="25" transform="translate(0.401 0)" fill="#55acee"/>
    <g id="Group_35" data-name="Group 35" transform="translate(11.127 15.084)">
      <path id="Path_34" data-name="Path 34" d="M54.075,36.815a11.859,11.859,0,0,1-3.414.935,5.96,5.96,0,0,0,2.614-3.288A11.9,11.9,0,0,1,49.5,35.9a5.949,5.949,0,0,0-10.129,5.422,16.873,16.873,0,0,1-12.252-6.211,5.95,5.95,0,0,0,1.839,7.936,5.9,5.9,0,0,1-2.692-.744c0,.025,0,.051,0,.075a5.947,5.947,0,0,0,4.768,5.828,5.967,5.967,0,0,1-2.684.1A5.95,5.95,0,0,0,33.9,52.441,12,12,0,0,1,25.1,54.9a16.813,16.813,0,0,0,9.111,2.671c10.933,0,16.912-9.057,16.912-16.912q0-.386-.017-.769a12.054,12.054,0,0,0,2.966-3.076Z" transform="translate(-25.103 -34.028)" fill="#fff"/>
    </g>
  </g>
</svg>
