<svg xmlns="http://www.w3.org/2000/svg" width="30.712" height="26.909" viewBox="0 0 30.712 26.909">
  <path id="Path_31" data-name="Path 31" d="M596.523,1334.382a.715.715,0,0,0-.619-.357H567.146a.715.715,0,0,0-.473,1.252l11.634,10.234,2.513,14.331a.715.715,0,0,0,.581.58.669.669,0,0,0,.124.011.716.716,0,0,0,.62-.359l14.379-24.978A.715.715,0,0,0,596.523,1334.382Zm-27.48,1.074h24.329l-14.327,8.8Zm12.846,22.2-2.132-12.157,14.122-8.672Z" transform="translate(-566.167 -1333.775)" stroke="#000" stroke-width="0.5"/>
</svg>
