<svg xmlns="http://www.w3.org/2000/svg" width="47.667" height="35.455" viewBox="0 0 47.667 35.455">
  <path id="Path_7" data-name="Path 7" d="M20.605-62.564q5.257-9.586,15.461-9.586,1.546,0,1.237,1.546a1.721,1.721,0,0,1-1.855,1.546,9.358,9.358,0,0,0-8.195,4.329q-2.938,4.329-2.319,6.494,5.566-1.546,8.658,3.092a9.088,9.088,0,0,1,1.237,7.421A13.716,13.716,0,0,1,30.5-40.3q-4.638,4.02-8.658,3.556a7.654,7.654,0,0,1-6.03-3.865q-2.01-3.4-1.082-9.277T20.605-62.564Zm23.5,0q7.112-9.586,17.008-9.586,1.237,0,.928,1.546a1.721,1.721,0,0,1-1.855,1.546,9.743,9.743,0,0,0-8.349,4.329q-3.092,4.329-2.165,6.494,5.875-1.237,8.349,3.092a8.461,8.461,0,0,1,1.546,7.421A13.069,13.069,0,0,1,54.929-40.3q-4.638,4.02-8.813,3.556a7.762,7.762,0,0,1-6.185-3.865q-2.01-3.4-1.237-9.277T44.106-62.564Z" transform="translate(-14.437 72.15)" fill="#d54062"/>
</svg>
